<svg width="160" height="72" viewBox="0 0 160 72" fill="none" xmlns="http://www.w3.org/2000/svg">
  <defs>
    <linearGradient id="body" x1="80" y1="8" x2="80" y2="64" gradientUnits="userSpaceOnUse">
      <stop offset="0" stop-color="#748692"/>
      <stop offset="0.35" stop-color="#3B4A55"/>
      <stop offset="1" stop-color="#14212B"/>
    </linearGradient>
    <linearGradient id="rim" x1="80" y1="4" x2="80" y2="68" gradientUnits="userSpaceOnUse">
      <stop offset="0" stop-color="#F5FBFF"/>
      <stop offset="0.52" stop-color="#7C95A7"/>
      <stop offset="1" stop-color="#061019"/>
    </linearGradient>
    <linearGradient id="shine" x1="30" y1="10" x2="130" y2="20" gradientUnits="userSpaceOnUse">
      <stop offset="0" stop-color="#FFFFFF" stop-opacity="0.75"/>
      <stop offset="0.55" stop-color="#D9F1FF" stop-opacity="0.28"/>
      <stop offset="1" stop-color="#FFFFFF" stop-opacity="0"/>
    </linearGradient>
  </defs>
  <rect x="6" y="5" width="148" height="62" rx="25" fill="#071019" opacity="0.55"/>
  <rect x="8" y="4" width="144" height="60" rx="24" fill="url(#rim)"/>
  <rect x="13" y="9" width="134" height="50" rx="20" fill="url(#body)"/>
  <path d="M27 15C42 10 118 10 133 15C122 21 38 21 27 15Z" fill="url(#shine)"/>
  <path d="M24 52C45 59 115 59 136 52" stroke="#03101A" stroke-opacity="0.85" stroke-width="3" stroke-linecap="round"/>
  <path d="M20 19C35 10 125 10 140 19" stroke="#FFFFFF" stroke-opacity="0.5" stroke-width="2" stroke-linecap="round"/>
  <path d="M20 55C41 62 119 62 140 55" stroke="#72D7FF" stroke-opacity="0.34" stroke-width="2" stroke-linecap="round"/>
</svg>
